<?xml version="1.0" encoding="UTF-8"?>
<svg width="400" height="400" viewBox="0 0 400 400" fill="none" xmlns="http://www.w3.org/2000/svg">
  <!-- Financial Graph -->
  <g transform="translate(50,50)">
    <!-- Grid Lines -->
    <path d="M0,0 H300 M0,50 H300 M0,100 H300 M0,150 H300" 
          stroke="currentColor" stroke-width="0.5" stroke-dasharray="2,2"/>
    <path d="M0,0 V150 M100,0 V150 M200,0 V150 M300,0 V150" 
          stroke="currentColor" stroke-width="0.5" stroke-dasharray="2,2"/>
    
    <!-- Line Chart -->
    <path d="M0,100 L75,80 L150,120 L225,60 L300,90" 
          stroke="currentColor" stroke-width="2" fill="none"/>
    
    <!-- Data Points -->
    <circle cx="75" cy="80" r="3" fill="currentColor"/>
    <circle cx="150" cy="120" r="3" fill="currentColor"/>
    <circle cx="225" cy="60" r="3" fill="currentColor"/>
    <circle cx="300" cy="90" r="3" fill="currentColor"/>
  </g>
  
  <!-- Analytics Icons -->
  <g transform="translate(50,250)">
    <!-- Bar Chart Icon -->
    <rect x="0" y="0" width="15" height="40" stroke="currentColor" fill="none"/>
    <rect x="20" y="10" width="15" height="30" stroke="currentColor" fill="none"/>
    <rect x="40" y="20" width="15" height="20" stroke="currentColor" fill="none"/>
    
    <!-- Pie Chart Icon -->
    <circle cx="100" cy="20" r="20" stroke="currentColor" fill="none"/>
    <path d="M100,20 L100,0 A20,20 0 0,1 117.32,30" stroke="currentColor" fill="none"/>
    
    <!-- Trend Line Icon -->
    <path d="M150,40 L190,0" stroke="currentColor" stroke-width="2"/>
    <circle cx="150" cy="40" r="2" fill="currentColor"/>
    <circle cx="190" cy="0" r="2" fill="currentColor"/>
  </g>
</svg>
