<?xml version="1.0" encoding="UTF-8"?>
<svg width="800" height="800" viewBox="0 0 800 800" fill="none" xmlns="http://www.w3.org/2000/svg">
  <!-- Stock Chart Lines -->
  <path d="M100,400 Q200,300 300,450 T500,350 T700,400" 
        stroke="currentColor" stroke-width="2" fill="none" class="animate-draw"/>
  
  <!-- Candlesticks -->
  <g transform="translate(150,200)" class="animate-fade-in">
    <line x1="0" y1="0" x2="0" y2="60" stroke="currentColor" stroke-width="2"/>
    <rect x="-8" y="20" width="16" height="30" stroke="currentColor" fill="none"/>
  </g>
  <g transform="translate(250,250)" class="animate-fade-in">
    <line x1="0" y1="0" x2="0" y2="50" stroke="currentColor" stroke-width="2"/>
    <rect x="-8" y="10" width="16" height="35" stroke="currentColor" fill="currentColor"/>
  </g>
  
  <!-- Mathematical Symbols -->
  <g transform="translate(400,150)" class="animate-scale">
    <text x="0" y="0" fill="currentColor" font-size="32" font-family="serif">∑</text>
    <text x="40" y="0" fill="currentColor" font-size="32" font-family="serif">∫</text>
    <text x="80" y="0" fill="currentColor" font-size="32" font-family="serif">π</text>
    <text x="120" y="0" fill="currentColor" font-size="32" font-family="serif">σ</text>
  </g>
  
  <!-- Economic Indicators -->
  <g transform="translate(500,300)">
    <path d="M0,0 L30,-30 L60,0 L90,-20" stroke="currentColor" stroke-width="2" fill="none"/>
    <text x="100" y="0" fill="currentColor" font-size="24">GDP</text>
  </g>
  
  <!-- Statistical Elements -->
  <g transform="translate(200,500)">
    <!-- Bell Curve -->
    <path d="M0,50 Q100,-50 200,50" stroke="currentColor" stroke-width="2" fill="none"/>
    <!-- Data Points -->
    <circle cx="50" cy="30" r="3" fill="currentColor"/>
    <circle cx="100" cy="10" r="3" fill="currentColor"/>
    <circle cx="150" cy="30" r="3" fill="currentColor"/>
  </g>
  
  <!-- Currency Symbols -->
  <g transform="translate(600,400)" class="animate-float">
    <text x="0" y="0" fill="currentColor" font-size="28">$</text>
    <text x="30" y="0" fill="currentColor" font-size="28">€</text>
    <text x="60" y="0" fill="currentColor" font-size="28">£</text>
    <text x="90" y="0" fill="currentColor" font-size="28">¥</text>
  </g>
  
  <!-- Risk Management Icons -->
  <g transform="translate(300,600)">
    <path d="M0,0 L20,-20 L40,0 L60,-20" stroke="currentColor" stroke-width="2" fill="none"/>
    <text x="70" y="0" fill="currentColor" font-size="20">RISK</text>
  </g>
  
  <!-- Portfolio Balance -->
  <g transform="translate(500,600)">
    <circle cx="0" cy="0" r="30" stroke="currentColor" fill="none"/>
    <path d="M-20,0 L20,0 M0,-20 L0,20" stroke="currentColor" stroke-width="2"/>
  </g>

  <style>
    .animate-draw {
      stroke-dasharray: 1000;
      stroke-dashoffset: 1000;
      animation: draw 2s ease forwards;
    }
    
    .animate-fade-in {
      opacity: 0;
      animation: fadeIn 1s ease forwards;
    }
    
    .animate-scale {
      transform-origin: center;
      animation: scale 1s ease infinite alternate;
    }
    
    .animate-float {
      animation: float 3s ease-in-out infinite;
    }
    
    @keyframes draw {
      to {
        stroke-dashoffset: 0;
      }
    }
    
    @keyframes fadeIn {
      to {
        opacity: 1;
      }
    }
    
    @keyframes scale {
      to {
        transform: scale(1.1);
      }
    }
    
    @keyframes float {
      50% {
        transform: translateY(-10px);
      }
    }
  </style>
</svg>
