<?xml version="1.0" encoding="UTF-8"?>
<svg width="400" height="400" viewBox="0 0 400 400" fill="none" xmlns="http://www.w3.org/2000/svg">
  <!-- Review Cards with Financial Elements -->
  <g transform="translate(50,50)">
    <!-- Card 1 -->
    <rect x="0" y="0" width="120" height="150" rx="10" stroke="currentColor" fill="none"/>
    <!-- Mini Chart -->
    <path d="M20,30 L40,20 L60,35 L80,15 L100,25" 
          stroke="currentColor" stroke-width="1" fill="none"/>
    <!-- Rating Stars -->
    <g transform="translate(20,60)">
      <path d="M0,0 L6,0 L8,-6 L10,0 L16,0 L11,4 L13,10 L8,6 L3,10 L5,4 Z" 
            stroke="currentColor" fill="none"/>
      <path d="M20,0 L26,0 L28,-6 L30,0 L36,0 L31,4 L33,10 L28,6 L23,10 L25,4 Z" 
            stroke="currentColor" fill="none"/>
      <path d="M40,0 L46,0 L48,-6 L50,0 L56,0 L51,4 L53,10 L48,6 L43,10 L45,4 Z" 
            stroke="currentColor" fill="none"/>
    </g>
    <!-- Text Lines -->
    <path d="M20,90 H100" stroke="currentColor" stroke-width="1"/>
    <path d="M20,110 H80" stroke="currentColor" stroke-width="1"/>
  </g>

  <!-- Card 2 -->
  <g transform="translate(200,50)">
    <rect x="0" y="0" width="120" height="150" rx="10" stroke="currentColor" fill="none"/>
    <!-- Mini Chart -->
    <path d="M20,30 C40,10 60,40 100,20" 
          stroke="currentColor" stroke-width="1" fill="none"/>
    <!-- Rating Stars -->
    <g transform="translate(20,60)">
      <path d="M0,0 L6,0 L8,-6 L10,0 L16,0 L11,4 L13,10 L8,6 L3,10 L5,4 Z" 
            stroke="currentColor" fill="currentColor"/>
      <path d="M20,0 L26,0 L28,-6 L30,0 L36,0 L31,4 L33,10 L28,6 L23,10 L25,4 Z" 
            stroke="currentColor" fill="currentColor"/>
      <path d="M40,0 L46,0 L48,-6 L50,0 L56,0 L51,4 L53,10 L48,6 L43,10 L45,4 Z" 
            stroke="currentColor" fill="currentColor"/>
    </g>
    <!-- Text Lines -->
    <path d="M20,90 H100" stroke="currentColor" stroke-width="1"/>
    <path d="M20,110 H90" stroke="currentColor" stroke-width="1"/>
  </g>

  <!-- Statistical Dots -->
  <circle cx="100" cy="250" r="2" fill="currentColor"/>
  <circle cx="150" cy="270" r="2" fill="currentColor"/>
  <circle cx="200" cy="260" r="2" fill="currentColor"/>
  <circle cx="250" cy="240" r="2" fill="currentColor"/>
  <path d="M100,250 Q175,280 250,240" stroke="currentColor" stroke-width="1" stroke-dasharray="2,2"/>
</svg>
